<svg width="446" height="102" fill="none" xmlns="http://www.w3.org/2000/svg">
  <g clip-path="url(#a)">
    <path d="M209.221 0c-12.591 0-23.701 2.552-30.335 6.459a90.841 90.841 0 0 0-4.135-.11h-.221c-12.252 0-23.11 2.421-29.798 6.15-2.507.185-4.989.375-7.45.578-5.678-1.48-12.447-2.353-19.697-2.37h-.19c-7.32 0-14.153.878-19.886 2.37a87.584 87.584 0 0 0-11.554-.774h-.189c-16.43 0-30.383 4.354-35.102 10.376-15.91.601-28.883 5.31-32.387 11.48C7.4 36.726.078 41.485.001 46.943c-.046 3.187 2.378 6.15 6.565 8.583-.95 1.308-1.463 2.682-1.483 4.113-.106 7.437 13.326 13.652 30.935 14.796a6.31 6.31 0 0 0-.316 1.879c-.117 8.215 16.276 14.92 36.585 14.967 9.692.023 18.518-1.476 25.127-3.941 2.628.365 5.305.727 8.018 1.068 6.595 3.872 17.617 6.417 30.114 6.447 6.681.015 12.951-.692 18.371-1.94.711.044 1.433.079 2.147.122 6.574 2.579 15.507 4.177 25.379 4.2 7.607.017 14.69-.905 20.581-2.493 1.992.029 3.991.056 5.998.074 6.699 3.387 16.985 5.572 28.536 5.599 12.987.03 24.423-2.678 31.029-6.778 4.748-.233 9.43-.49 14.047-.786 4.798 1.397 10.461 2.336 16.604 2.665 6.589 3.89 17.614 6.454 30.146 6.483 16.601.038 30.724-4.383 35.385-10.486 1.775.11 3.581.167 5.43.172.634.001 1.267-.014 1.894-.025a90.12 90.12 0 0 0 1.862-.05c12.49-.483 23.197-3.502 28.883-7.772 2.314.19 4.716.29 7.166.295 20.309.047 36.879-6.58 36.995-14.796.067-4.663-5.18-8.842-13.447-11.59 3.95-2.357 6.27-5.193 6.313-8.252.065-4.543-4.917-8.621-12.816-11.37.359-.82.556-1.657.569-2.518.116-8.215-16.277-14.932-36.586-14.98h-.22c-7.346 0-14.173.88-19.919 2.382-.881-.184-1.754-.37-2.651-.552-5.137-5.666-18.557-9.725-34.344-9.762h-.221c-6.568 0-12.717.695-18.056 1.916-3.464-6.722-18.144-11.796-35.796-11.837h-.221c-11.382 0-21.564 2.09-28.315 5.378-3.219-.71-6.736-1.226-10.448-1.522C233.283 2.656 222.135.03 209.442 0h-.221Z" fill="#7FB3FF" fill-opacity=".3"/>
    <path d="M209.846 4.278c-12.02 0-22.626 2.338-28.959 5.917a90.407 90.407 0 0 0-3.947-.101h-.211c-11.696 0-22.062 2.218-28.447 5.635-2.393.17-4.762.343-7.112.529-5.42-1.356-11.882-2.156-18.804-2.171h-.18c-6.989 0-13.511.804-18.985 2.17-3.46-.452-7.181-.7-11.03-.708h-.18c-15.686 0-29.005 3.989-33.51 9.506-15.189.55-27.573 4.864-30.917 10.517-10.385 2.35-17.374 6.71-17.448 11.71-.043 2.92 2.27 5.635 6.268 7.863-.908 1.198-1.397 2.457-1.417 3.768-.1 6.814 12.722 12.508 29.532 13.555a5.57 5.57 0 0 0-.301 1.721c-.112 7.527 15.538 13.67 34.926 13.713 9.252.02 17.677-1.353 23.986-3.611 2.51.334 5.065.665 7.655.978 6.296 3.548 16.818 5.88 28.748 5.906 6.378.014 12.364-.634 17.538-1.777.678.04 1.368.072 2.049.112 6.276 2.362 14.803 3.826 24.228 3.847 7.262.017 14.024-.828 19.648-2.283 1.901.026 3.81.051 5.725.067 6.395 3.103 16.215 5.105 27.242 5.13 12.398.027 23.315-2.454 29.622-6.21 4.532-.213 9.002-.448 13.41-.72 4.579 1.28 9.986 2.14 15.85 2.441 6.291 3.565 16.815 5.913 28.779 5.94 15.848.035 29.33-4.015 33.78-9.607 1.694.102 3.418.154 5.183.158.606.001 1.21-.012 1.808-.023.599-.01 1.188-.023 1.778-.045 11.923-.443 22.145-3.21 27.573-7.12 2.209.174 4.502.265 6.841.27 19.387.043 35.206-6.028 35.317-13.555.063-4.272-4.946-8.1-12.837-10.619 3.771-2.159 5.985-4.757 6.027-7.56.061-4.16-4.695-7.897-12.235-10.416.342-.75.531-1.517.543-2.305.111-7.527-15.538-13.68-34.926-13.724h-.211c-7.012 0-13.53.807-19.015 2.182-.841-.17-1.674-.34-2.531-.506-4.904-5.19-17.715-8.91-32.786-8.943h-.211c-6.27 0-12.14.637-17.237 1.755-3.307-6.158-17.321-10.806-34.172-10.844h-.211c-10.866 0-20.586 1.915-27.031 4.927-3.073-.651-6.431-1.123-9.974-1.395-6.261-3.641-16.902-6.047-29.02-6.074h-.211Z" fill="#E9E4C7" fill-opacity=".6"/>
    <path d="M209.846 4.278c-12.02 0-22.626 2.338-28.959 5.917a90.407 90.407 0 0 0-3.947-.101h-.211c-11.696 0-22.062 2.218-28.447 5.635-2.393.17-4.762.343-7.112.529-5.42-1.356-11.882-2.156-18.804-2.171h-.18c-6.989 0-13.511.804-18.985 2.17-3.46-.452-7.181-.7-11.03-.708h-.18c-15.686 0-29.005 3.989-33.51 9.506-15.189.55-27.573 4.864-30.917 10.517-10.385 2.35-17.374 6.71-17.448 11.71-.043 2.92 2.27 5.635 6.268 7.863-.908 1.198-1.397 2.457-1.417 3.768-.1 6.814 12.722 12.508 29.532 13.555a5.57 5.57 0 0 0-.301 1.721c-.112 7.527 15.538 13.67 34.926 13.713 9.252.02 17.677-1.353 23.986-3.611 2.51.334 5.065.665 7.655.978 6.296 3.548 16.818 5.88 28.748 5.906 6.378.014 12.364-.634 17.538-1.777.678.04 1.368.072 2.049.112 6.276 2.362 14.803 3.826 24.228 3.847 7.262.017 14.024-.828 19.648-2.283 1.901.026 3.81.051 5.725.067 6.395 3.103 16.215 5.105 27.242 5.13 12.398.027 23.315-2.454 29.622-6.21 4.532-.213 9.002-.448 13.41-.72 4.579 1.28 9.986 2.14 15.85 2.441 6.291 3.565 16.815 5.913 28.779 5.94 15.848.035 29.33-4.015 33.78-9.607 1.694.102 3.418.154 5.183.158.606.001 1.21-.012 1.808-.023.599-.01 1.188-.023 1.778-.045 11.923-.443 22.145-3.21 27.573-7.12 2.209.174 4.502.265 6.841.27 19.387.043 35.206-6.028 35.317-13.555.063-4.272-4.946-8.1-12.837-10.619 3.771-2.159 5.985-4.757 6.027-7.56.061-4.16-4.695-7.897-12.235-10.416.342-.75.531-1.517.543-2.305.111-7.527-15.538-13.68-34.926-13.724h-.211c-7.012 0-13.53.807-19.015 2.182-.841-.17-1.674-.34-2.531-.506-4.904-5.19-17.715-8.91-32.786-8.943h-.211c-6.27 0-12.14.637-17.237 1.755-3.307-6.158-17.321-10.806-34.172-10.844h-.211c-10.866 0-20.586 1.915-27.031 4.927-3.073-.651-6.431-1.123-9.974-1.395-6.261-3.641-16.902-6.047-29.02-6.074h-.211Z" fill="#E9E4C7" fill-opacity=".2"/>
  </g>
  <defs>
    <clipPath id="a">
      <path fill="#fff" d="M0 0h446v102H0z"/>
    </clipPath>
  </defs>
</svg>
