<svg width="329" height="113" fill="none" xmlns="http://www.w3.org/2000/svg">
  <path d="M154.336 0c-9.288 0-17.484 2.827-22.377 7.155a44.698 44.698 0 0 0-3.051-.122h-.163c-9.037 0-17.047 2.683-21.981 6.815-1.849.204-3.68.414-5.495.64-4.19-1.64-9.182-2.608-14.53-2.626h-.14c-5.4 0-10.44.972-14.67 2.625a43.441 43.441 0 0 0-8.523-.857h-.14c-12.12 0-22.412 4.823-25.892 11.495-11.738.666-21.307 5.883-23.891 12.718C5.458 40.685.058 45.957 0 52.004c-.033 3.53 1.755 6.814 4.844 9.509-.702 1.449-1.08 2.971-1.095 4.557-.078 8.239 9.83 15.124 22.82 16.391a10.224 10.224 0 0 0-.233 2.081c-.086 9.102 12.007 16.53 26.988 16.582 7.15.025 13.66-1.635 18.535-4.366 1.939.404 3.913.805 5.915 1.183 4.865 4.29 12.995 7.11 22.214 7.142 4.928.017 9.554-.766 13.552-2.149.524.049 1.057.087 1.583.136 4.85 2.856 11.439 4.626 18.722 4.652 5.611.019 10.836-1.002 15.182-2.762 1.469.032 2.944.062 4.424.082 4.942 3.753 12.53 6.173 21.05 6.203 9.581.033 18.016-2.967 22.89-7.509 3.502-.258 6.956-.542 10.362-.87 3.538 1.548 7.716 2.587 12.248 2.951 4.86 4.31 12.993 7.15 22.237 7.183 12.246.042 22.664-4.855 26.103-11.617a44.5 44.5 0 0 0 4.005.19c.468.002.935-.014 1.397-.027.463-.013.918-.028 1.374-.054 9.213-.537 17.112-3.882 21.306-8.611 1.707.211 3.479.32 5.286.326 14.981.053 27.204-7.29 27.291-16.391.048-5.166-3.822-9.796-9.92-12.841 2.914-2.61 4.625-5.753 4.657-9.142.048-5.032-3.627-9.55-9.454-12.596.265-.908.41-1.836.419-2.788.086-9.102-12.006-16.544-26.987-16.596h-.163c-5.419 0-10.455.975-14.694 2.639-.65-.205-1.293-.41-1.955-.612-3.79-6.277-13.689-10.774-25.335-10.814h-.163c-4.844 0-9.38.77-13.319 2.121C229.53 8.742 218.702 3.12 205.68 3.075h-.163c-8.396 0-15.907 2.316-20.887 5.958-2.375-.787-4.969-1.358-7.707-1.686C172.085 2.942 163.862.033 154.499 0h-.163Z" fill="#7FB3FF" fill-opacity=".3"/>
  <path d="M154.797 4.74c-8.867 0-16.691 2.59-21.362 6.554a44.497 44.497 0 0 0-2.912-.112h-.156c-8.628 0-16.274 2.458-20.984 6.243-1.766.188-3.513.38-5.246.586-3.999-1.502-8.766-2.388-13.871-2.405h-.134c-5.155 0-9.966.89-14.004 2.405a43.153 43.153 0 0 0-8.136-.785h-.133c-11.571 0-21.396 4.419-24.719 10.53-11.205.61-20.34 5.39-22.807 11.652-7.66 2.604-12.816 7.434-12.87 12.973-.033 3.235 1.674 6.243 4.623 8.711-.67 1.328-1.03 2.723-1.045 4.175-.074 7.548 9.384 13.856 21.785 15.016a9.01 9.01 0 0 0-.223 1.907c-.082 8.339 11.462 15.143 25.764 15.191 6.825.023 13.04-1.498 17.694-4 1.851.37 3.736.737 5.646 1.084 4.645 3.93 12.407 6.513 21.207 6.543 4.705.015 9.121-.702 12.938-1.97.5.046 1.008.081 1.511.125 4.629 2.617 10.92 4.239 17.872 4.262 5.357.018 10.345-.918 14.494-2.53 1.402.03 2.81.057 4.223.075 4.718 3.438 11.962 5.656 20.095 5.683 9.147.031 17.199-2.718 21.852-6.88 3.343-.236 6.64-.496 9.892-.797 3.378 1.418 7.366 2.371 11.692 2.705 4.64 3.948 12.404 6.55 21.229 6.579 11.691.04 21.636-4.447 24.919-10.642 1.249.112 2.521.17 3.823.174.447.002.893-.013 1.334-.025.442-.011.876-.025 1.312-.05 8.795-.49 16.335-3.555 20.339-7.888 1.63.194 3.321.294 5.046.3 14.302.047 25.971-6.679 26.053-15.017.047-4.733-3.648-8.974-9.47-11.764 2.782-2.392 4.415-5.27 4.446-8.375.046-4.61-3.463-8.75-9.025-11.54a9.055 9.055 0 0 0 .4-2.554c.082-8.339-11.462-15.156-25.763-15.204h-.156c-5.173 0-9.98.894-14.027 2.418-.62-.188-1.235-.376-1.867-.56-3.618-5.751-13.067-9.87-24.185-9.908h-.156c-4.625 0-8.955.705-12.715 1.944-2.439-6.822-12.777-11.972-25.208-12.013h-.155c-8.016 0-15.186 2.121-19.94 5.458-2.267-.722-4.744-1.245-7.358-1.545-4.618-4.034-12.468-6.7-21.406-6.73h-.156Z" fill="#E9E4C7" fill-opacity=".6"/>
  <path d="M154.797 4.74c-8.867 0-16.691 2.59-21.362 6.554a44.497 44.497 0 0 0-2.912-.112h-.156c-8.628 0-16.274 2.458-20.984 6.243-1.766.188-3.513.38-5.246.586-3.999-1.502-8.766-2.388-13.871-2.405h-.134c-5.155 0-9.966.89-14.004 2.405a43.153 43.153 0 0 0-8.136-.785h-.133c-11.571 0-21.396 4.419-24.719 10.53-11.205.61-20.34 5.39-22.807 11.652-7.66 2.604-12.816 7.434-12.87 12.973-.033 3.235 1.674 6.243 4.623 8.711-.67 1.328-1.03 2.723-1.045 4.175-.074 7.548 9.384 13.856 21.785 15.016a9.01 9.01 0 0 0-.223 1.907c-.082 8.339 11.462 15.143 25.764 15.191 6.825.023 13.04-1.498 17.694-4 1.851.37 3.736.737 5.646 1.084 4.645 3.93 12.407 6.513 21.207 6.543 4.705.015 9.121-.702 12.938-1.97.5.046 1.008.081 1.511.125 4.629 2.617 10.92 4.239 17.872 4.262 5.357.018 10.345-.918 14.494-2.53 1.402.03 2.81.057 4.223.075 4.718 3.438 11.962 5.656 20.095 5.683 9.147.031 17.199-2.718 21.852-6.88 3.343-.236 6.64-.496 9.892-.797 3.378 1.418 7.366 2.371 11.692 2.705 4.64 3.948 12.404 6.55 21.229 6.579 11.691.04 21.636-4.447 24.919-10.642 1.249.112 2.521.17 3.823.174.447.002.893-.013 1.334-.025.442-.011.876-.025 1.312-.05 8.795-.49 16.335-3.555 20.339-7.888 1.63.194 3.321.294 5.046.3 14.302.047 25.971-6.679 26.053-15.017.047-4.733-3.648-8.974-9.47-11.764 2.782-2.392 4.415-5.27 4.446-8.375.046-4.61-3.463-8.75-9.025-11.54a9.055 9.055 0 0 0 .4-2.554c.082-8.339-11.462-15.156-25.763-15.204h-.156c-5.173 0-9.98.894-14.027 2.418-.62-.188-1.235-.376-1.867-.56-3.618-5.751-13.067-9.87-24.185-9.908h-.156c-4.625 0-8.955.705-12.715 1.944-2.439-6.822-12.777-11.972-25.208-12.013h-.155c-8.016 0-15.186 2.121-19.94 5.458-2.267-.722-4.744-1.245-7.358-1.545-4.618-4.034-12.468-6.7-21.406-6.73h-.156Z" fill="#E9E4C7" fill-opacity=".2"/>
</svg>
